<?xml version="1.0" encoding="UTF-8"?>
<!DOCTYPE svg PUBLIC "-//W3C//DTD SVG 1.1//EN" "http://www.w3.org/Graphics/SVG/1.1/DTD/svg11.dtd">
<svg xmlns="http://www.w3.org/2000/svg" version="1.1" width="512px" height="512px" style="shape-rendering:geometricPrecision; text-rendering:geometricPrecision; image-rendering:optimizeQuality; fill-rule:evenodd; clip-rule:evenodd" xmlns:xlink="http://www.w3.org/1999/xlink">
<g><path style="opacity:1" fill="#669900" d="M -0.5,-0.5 C 170.167,-0.5 340.833,-0.5 511.5,-0.5C 511.5,170.167 511.5,340.833 511.5,511.5C 340.833,511.5 170.167,511.5 -0.5,511.5C -0.5,340.833 -0.5,170.167 -0.5,-0.5 Z"/></g>
<g><path style="opacity:1" fill="#e7e9eb" d="M 248.5,105.5 C 255.549,104.718 262.216,105.885 268.5,109C 305.337,130.586 342.337,151.919 379.5,173C 383.815,176.313 386.982,180.479 389,185.5C 389.667,232.167 389.667,278.833 389,325.5C 386.953,330.543 383.787,334.71 379.5,338C 340.403,360.766 301.07,383.099 261.5,405C 253.918,406.548 246.918,405.215 240.5,401C 202.918,379.293 165.418,357.46 128,335.5C 125.497,332.498 123.497,329.165 122,325.5C 121.333,278.833 121.333,232.167 122,185.5C 124.05,180.455 127.216,176.288 131.5,173C 170.563,150.473 209.563,127.973 248.5,105.5 Z"/></g>
<g><path style="opacity:1" fill="#679904" d="M 254.5,127.5 C 287.942,146.39 321.275,165.557 354.5,185C 342.065,192.3 329.565,199.467 317,206.5C 284.187,188.093 251.52,169.427 219,150.5C 218.383,149.551 218.549,148.718 219.5,148C 231.23,141.14 242.896,134.307 254.5,127.5 Z"/></g>
<g><path style="opacity:1" fill="#679904" d="M 193.5,162.5 C 226.942,181.39 260.275,200.557 293.5,220C 281.5,227.333 269.5,234.667 257.5,242C 253.66,241.6 249.993,240.266 246.5,238C 216.5,220.333 186.5,202.667 156.5,185C 168.897,177.474 181.23,169.974 193.5,162.5 Z"/></g>
<g><path style="opacity:1" fill="#669901" d="M 143.5,203.5 C 176.806,222.822 210.139,242.155 243.5,261.5C 244.667,300.162 244.833,338.829 244,377.5C 210.915,358.04 177.749,338.707 144.5,319.5C 143.5,280.839 143.167,242.172 143.5,203.5 Z"/></g>
<g><path style="opacity:1" fill="#669901" d="M 366.5,203.5 C 367.831,242.002 367.831,280.669 366.5,319.5C 333.251,338.707 300.085,358.04 267,377.5C 266.167,338.829 266.333,300.162 267.5,261.5C 300.539,242.104 333.539,222.77 366.5,203.5 Z"/></g>
</svg>
